<?xml version="1.0" encoding="UTF-8"?>
<svg width="32px" height="24px" viewBox="0 0 32 24" version="1.1" xmlns="http://www.w3.org/2000/svg" xmlns:xlink="http://www.w3.org/1999/xlink">
    <!-- Generator: Sketch 64 (93537) - https://sketch.com -->
    <title>amex</title>
    <desc>Created with Sketch.</desc>
    <g id="wireframes" stroke="none" stroke-width="1" fill="none" fill-rule="evenodd">
        <g id="XL-/-1440-→-2560-" transform="translate(-196.000000, -3341.000000)" fill="#FFFFFF">
            <g id="footer" transform="translate(0.000000, 3119.000000)">
                <g id="amex" transform="translate(196.000000, 222.000000)">
                    <polygon id="Fill-530" points="5.776 12.6666667 7.308 12.6666667 6.54533333 10.768"></polygon>
                    <path d="M26.582,14.6666667 C26.358,14.4013333 25.546,13.44 25.306,13.1213333 C24.778,13.8346667 24.6366667,13.9986667 24.094,14.6666667 L22.1086667,14.6666667 L24.3153333,11.896 L22.21,9.33333333 L24.2153333,9.33333333 C24.5073333,9.748 25.154,10.612 25.306,10.8133333 C26.002,9.792 25.5086667,10.4706667 26.3686667,9.33333333 L28.334,9.33333333 L26.3126667,11.896 L28.598,14.6666667 L26.582,14.6666667 Z M21.9993333,14.6666667 L17.9993333,14.6666667 L17.9993333,9.33333333 L21.3326667,9.33333333 L21.3326667,10.6666667 L19.3326667,10.6666667 L19.3326667,11.3333333 L21.3326667,11.3333333 L21.3326667,12.6666667 L19.3326667,12.6666667 L19.3326667,13.3333333 L21.9993333,13.3333333 L21.9993333,14.6666667 Z M16.666,14.6666667 L14.666,14.6666667 L14.666,11.6533333 L13.454,13.3333333 L13.33,13.3333333 L11.9993333,11.6533333 L11.9993333,14.6666667 L10.666,14.6666667 L10.666,9.33333333 L11.8113333,9.33333333 L13.41,11.2853333 L15.0153333,9.33333333 L16.666,9.33333333 L16.666,14.6666667 Z M8.09133333,14.6666667 L7.66733333,13.3333333 L5.40866667,13.3333333 L4.97666667,14.6666667 L3.37133333,14.6666667 L5.67,9.33333333 L7.40466667,9.33333333 L9.698,14.6666667 L8.09133333,14.6666667 Z M28.666,0 L3.33266667,0 C1.49533333,0 -0.000666666667,1.496 -0.000666666667,3.33333333 L-0.000666666667,20.6666667 C-0.000666666667,22.504 1.49533333,24 3.33266667,24 L28.666,24 C30.5033333,24 31.9993333,22.504 31.9993333,20.6666667 L31.9993333,3.33333333 C31.9993333,1.496 30.5033333,0 28.666,0 L28.666,0 Z" id="Fill-531"></path>
                </g>
            </g>
        </g>
    </g>
</svg>