<svg xmlns="http://www.w3.org/2000/svg" width="96" height="32" viewBox="0 0 96 32">
    <g fill="none">
        <path fill="#A6A6A6" d="M88.108 0H7.628c-.294 0-.583 0-.876.002-.245.001-.488.006-.735.01-.537.006-1.073.053-1.603.141-.53.09-1.042.259-1.521.502-.478.245-.915.563-1.295.943-.382.379-.7.816-.943 1.297-.243.479-.411.992-.5 1.522-.089.53-.137 1.065-.143 1.602-.007.245-.008.491-.012.736v18.492c.004.248.005.489.012.737.006.537.054 1.073.143 1.602.088.53.257 1.044.5 1.523.243.479.561.915.943 1.292.378.381.816.7 1.295.943s.991.413 1.52.504c.53.087 1.067.135 1.604.142.247.005.49.008.735.008.293.002.582.002.876.002h80.48c.287 0 .58 0 .867-.002.244 0 .494-.003.738-.008.536-.007 1.07-.054 1.6-.142.53-.091 1.045-.261 1.526-.504.479-.243.916-.562 1.294-.943.38-.378.7-.814.945-1.292.242-.48.409-.993.495-1.523.09-.53.14-1.065.149-1.602.003-.248.003-.489.003-.737.006-.29.006-.58.006-.875V7.629c0-.293 0-.584-.006-.874 0-.245 0-.49-.003-.736-.01-.537-.06-1.072-.149-1.602-.087-.53-.254-1.043-.495-1.523-.494-.962-1.277-1.745-2.239-2.24-.481-.242-.995-.41-1.526-.5-.53-.09-1.064-.136-1.6-.142-.244-.004-.494-.009-.738-.01C88.687 0 88.395 0 88.108 0z"/>
        <path fill="#000" d="M6.756 31.3c-.244 0-.482-.003-.724-.009-.5-.006-1-.05-1.495-.13-.461-.08-.908-.227-1.325-.438-.414-.21-.791-.484-1.118-.814-.331-.325-.607-.702-.816-1.117-.212-.417-.358-.864-.435-1.326-.082-.496-.127-.997-.133-1.5-.005-.168-.012-.73-.012-.73V6.756s.007-.554.012-.716c.006-.502.05-1.003.133-1.498.076-.463.223-.911.434-1.33.209-.414.483-.791.812-1.118.33-.33.708-.606 1.122-.818.417-.21.863-.357 1.323-.435.496-.081.998-.125 1.5-.131L6.756.7h82.215l.73.01c.499.006.996.05 1.487.13.465.08.916.227 1.337.439.83.427 1.506 1.104 1.932 1.935.208.416.353.86.428 1.32.083.499.13 1.003.14 1.51.002.226.002.47.002.711.006.3.006.586.006.874v16.743c0 .29 0 .574-.006.86 0 .26 0 .498-.004.744-.009.497-.055.992-.136 1.483-.075.464-.22.915-.432 1.336-.211.41-.485.784-.813 1.108-.327.331-.705.607-1.12.818-.42.213-.87.361-1.334.44-.494.08-.994.124-1.495.13-.234.006-.48.009-.718.009l-.867.002L6.756 31.3z"/>
        <g fill="#FFF">
            <path d="M12.615 9.84c.018-1.357.73-2.61 1.885-3.321-.732-1.047-1.916-1.686-3.193-1.726-1.343-.141-2.645.804-3.33.804-.698 0-1.752-.79-2.887-.767-1.493.048-2.851.877-3.578 2.182-1.547 2.68-.393 6.616 1.089 8.781.741 1.06 1.608 2.245 2.742 2.203 1.11-.046 1.524-.708 2.864-.708 1.327 0 1.715.708 2.872.681 1.191-.02 1.941-1.065 2.657-2.135.533-.756.943-1.59 1.214-2.474-1.414-.598-2.333-1.984-2.335-3.52zM10.43 3.369c.649-.78.969-1.781.891-2.793-.991.104-1.908.578-2.566 1.328-.65.74-.979 1.707-.915 2.689 1.006.01 1.96-.44 2.59-1.224z" transform="translate(7.2 6.4)"/>
            <g>
                <path d="M6.642 8.112H2.855l-.91 2.685H.343L3.929.862h1.666l3.587 9.935H7.55l-.908-2.685zm-3.395-1.24H6.25l-1.48-4.357h-.041l-1.48 4.358zM16.928 7.176c0 2.25-1.205 3.697-3.023 3.697-.94.049-1.825-.443-2.279-1.268h-.034v3.588h-1.487v-9.64h1.44V4.76h.027c.474-.82 1.36-1.311 2.306-1.28 1.838 0 3.05 1.452 3.05 3.697zm-1.528 0c0-1.467-.758-2.43-1.914-2.43-1.136 0-1.9.984-1.9 2.43 0 1.46.764 2.437 1.9 2.437 1.156 0 1.914-.958 1.914-2.437zM24.9 7.176c0 2.25-1.205 3.697-3.023 3.697-.94.049-1.825-.443-2.279-1.268h-.034v3.588h-1.487v-9.64h1.439V4.76h.027c.475-.82 1.36-1.311 2.307-1.28 1.838 0 3.05 1.452 3.05 3.697zm-1.528 0c0-1.467-.758-2.43-1.915-2.43-1.136 0-1.9.984-1.9 2.43 0 1.46.764 2.437 1.9 2.437 1.157 0 1.915-.958 1.915-2.437zM30.168 8.029c.11.985 1.068 1.632 2.375 1.632 1.254 0 2.155-.647 2.155-1.535 0-.771-.544-1.233-1.831-1.55l-1.288-.31c-1.824-.44-2.67-1.293-2.67-2.678 0-1.714 1.493-2.891 3.614-2.891 2.1 0 3.538 1.177 3.587 2.891h-1.501c-.09-.991-.91-1.59-2.107-1.59-1.198 0-2.017.606-2.017 1.487 0 .702.523 1.116 1.804 1.432l1.094.269c2.038.482 2.885 1.3 2.885 2.754 0 1.858-1.48 3.022-3.835 3.022-2.203 0-3.69-1.136-3.787-2.933h1.522zM39.477 1.84v1.714h1.377V4.73h-1.377v3.993c0 .62.276.91.881.91.164-.003.327-.015.49-.035v1.17c-.273.051-.55.074-.827.07-1.466 0-2.038-.552-2.038-1.956V4.73H36.93V3.554h1.053V1.84h1.494zM41.652 7.176c0-2.28 1.342-3.711 3.435-3.711 2.1 0 3.436 1.432 3.436 3.71 0 2.286-1.329 3.712-3.436 3.712-2.106 0-3.435-1.426-3.435-3.711zm5.356 0c0-1.563-.716-2.486-1.92-2.486-1.206 0-1.921.93-1.921 2.486 0 1.57.715 2.485 1.92 2.485s1.921-.916 1.921-2.485zM49.749 3.554h1.418v1.233h.034c.198-.794.925-1.34 1.742-1.309.172 0 .343.018.51.056v1.39c-.217-.066-.442-.096-.668-.09-.437-.017-.86.157-1.158.477-.298.32-.44.755-.391 1.19v4.296h-1.487V3.554zM60.307 8.67c-.2 1.314-1.48 2.217-3.118 2.217-2.107 0-3.415-1.412-3.415-3.677 0-2.272 1.315-3.745 3.352-3.745 2.004 0 3.264 1.376 3.264 3.572v.51h-5.115v.09c-.048.539.138 1.073.51 1.465.374.393.897.606 1.438.586.722.068 1.402-.346 1.673-1.018h1.411zm-5.025-2.162h3.62c.028-.485-.149-.959-.486-1.307-.337-.35-.805-.542-1.29-.531-.489-.003-.959.19-1.305.534-.346.346-.54.815-.54 1.304z" transform="translate(7.2 6.4) translate(20 7.2)"/>
            </g>
        </g>
        <g fill="#FFF">
            <path d="M2.261.585c.631-.045 1.25.195 1.684.654.436.46.642 1.09.562 1.718 0 1.525-.824 2.401-2.246 2.401H.537V.585H2.26zm-.983 4.098h.9c.451.027.89-.15 1.196-.484.305-.333.444-.786.378-1.233.061-.445-.08-.894-.384-1.224-.305-.33-.741-.508-1.19-.483h-.9v3.424zM5.345 3.555c-.062-.645.247-1.27.799-1.612.55-.342 1.248-.342 1.8 0 .55.342.86.967.798 1.612.063.647-.246 1.273-.798 1.616-.551.342-1.25.342-1.801 0-.552-.343-.861-.97-.798-1.616zm2.666 0c0-.78-.35-1.237-.966-1.237-.618 0-.966.457-.966 1.237 0 .788.348 1.24.966 1.24.615 0 .966-.456.966-1.24zM13.259 5.358L12.521 5.358 11.777 2.705 11.72 2.705 10.979 5.358 10.248 5.358 9.255 1.756 9.977 1.756 10.622 4.505 10.675 4.505 11.416 1.756 12.098 1.756 12.838 4.505 12.895 4.505 13.537 1.756 14.248 1.756zM15.083 1.756h.684v.572h.053c.185-.421.617-.679 1.075-.642.355-.026.703.11.946.37.242.261.353.618.301.97v2.332h-.71V3.205c0-.58-.252-.867-.778-.867-.24-.011-.475.083-.64.259-.165.175-.246.414-.22.654v2.107h-.711V1.756zM19.275.35L19.986.35 19.986 5.358 19.275 5.358zM20.974 3.555c-.061-.645.248-1.27.8-1.612.55-.342 1.248-.342 1.8 0 .55.342.86.967.798 1.612.063.647-.246 1.273-.798 1.616-.552.342-1.25.342-1.802 0-.551-.343-.86-.97-.798-1.616zm2.667 0c0-.78-.351-1.237-.967-1.237-.618 0-.965.457-.965 1.237 0 .788.347 1.24.965 1.24.616 0 .967-.456.967-1.24zM25.12 4.34c0-.649.484-1.023 1.34-1.076l.976-.056v-.311c0-.38-.251-.595-.737-.595-.397 0-.672.145-.75.4h-.69c.073-.619.655-1.016 1.473-1.016.903 0 1.412.45 1.412 1.21v2.462h-.684v-.506h-.056c-.233.37-.646.586-1.082.566-.306.031-.611-.068-.84-.273-.229-.205-.36-.498-.361-.806zm2.316-.308V3.73l-.88.057c-.495.033-.72.202-.72.52 0 .323.28.512.668.512.229.023.457-.047.633-.196.176-.148.284-.362.3-.591zM29.079 3.555c0-1.138.585-1.859 1.495-1.859.46-.021.89.225 1.105.632h.053V.35h.71v5.008h-.68V4.79h-.057c-.23.404-.667.646-1.131.629-.917 0-1.495-.722-1.495-1.863zm.734 0c0 .765.36 1.224.962 1.224.6 0 .97-.466.97-1.22 0-.751-.374-1.224-.97-1.224-.598 0-.962.463-.962 1.22zM35.384 3.555c-.062-.645.248-1.27.799-1.612.551-.342 1.249-.342 1.8 0 .55.342.86.967.799 1.612.063.647-.247 1.273-.798 1.616-.552.342-1.25.342-1.802 0-.552-.343-.86-.97-.798-1.616zm2.666 0c0-.78-.35-1.237-.966-1.237-.618 0-.966.457-.966 1.237 0 .788.348 1.24.966 1.24.616 0 .966-.456.966-1.24zM39.736 1.756h.684v.572h.053c.185-.421.617-.679 1.075-.642.355-.026.703.11.946.37.242.261.353.618.3.97v2.332h-.71V3.205c0-.58-.252-.867-.777-.867-.241-.011-.475.083-.64.259-.166.175-.246.414-.22.654v2.107h-.711V1.756zM46.812.859v.913h.78v.6h-.78v1.851c0 .378.156.543.51.543.09 0 .18-.006.27-.016v.592c-.127.023-.256.035-.386.036-.79 0-1.106-.278-1.106-.973V2.371h-.571v-.599h.571V.86h.712zM48.564.35h.704v1.985h.057c.193-.425.633-.683 1.098-.646.353-.019.696.12.936.38.24.26.352.613.305.963v2.326h-.712v-2.15c0-.576-.268-.867-.77-.867-.248-.02-.491.07-.666.246-.175.176-.263.42-.241.667v2.104h-.711V.35zM55.809 4.386c-.2.679-.857 1.118-1.56 1.042-.481.012-.943-.187-1.263-.545-.32-.358-.468-.839-.402-1.315-.064-.477.082-.959.401-1.32.319-.36.778-.566 1.26-.562 1.002 0 1.607.685 1.607 1.816v.248h-2.544v.04c-.022.268.069.532.252.728.182.197.44.307.708.304.347.042.686-.13.857-.436h.684zm-2.5-1.161h1.819c.018-.245-.068-.486-.237-.663-.169-.178-.405-.276-.65-.27-.248-.004-.488.094-.663.27-.176.175-.273.414-.27.663z" transform="translate(28 6.4)"/>
        </g>
    </g>
</svg>
