<?xml version="1.0" encoding="UTF-8"?>
<svg width="32px" height="24px" viewBox="0 0 32 24" version="1.1" xmlns="http://www.w3.org/2000/svg" xmlns:xlink="http://www.w3.org/1999/xlink">
    <!-- Generator: Sketch 64 (93537) - https://sketch.com -->
    <title>mastercard</title>
    <desc>Created with Sketch.</desc>
    <g id="wireframes" stroke="none" stroke-width="1" fill="none" fill-rule="evenodd">
        <g id="XL-/-1440-→-2560-" transform="translate(-148.000000, -3341.000000)" fill="#FFFFFF">
            <g id="footer" transform="translate(0.000000, 3119.000000)">
                <g id="mastercard" transform="translate(148.000000, 222.000000)">
                    <polygon id="Fill-3360" points="8 9.33333333 9.33333333 9.33333333 9.33333333 8 8 8"></polygon>
                    <polygon id="Fill-3361" points="13.3333333 9.33333333 14.6666667 9.33333333 14.6666667 8 13.3333333 8"></polygon>
                    <polygon id="Fill-3362" points="13.3333333 12 14.6666667 12 14.6666667 10.6666667 13.3333333 10.6666667"></polygon>
                    <polygon id="Fill-3363" points="13.3333333 14.6666667 14.6666667 14.6666667 14.6666667 13.3333333 13.3333333 13.3333333"></polygon>
                    <polygon id="Fill-3364" points="13.3333333 17.3333333 14.6666667 17.3333333 14.6666667 16 13.3333333 16"></polygon>
                    <polygon id="Fill-3365" points="8 12 9.33333333 12 9.33333333 10.6666667 8 10.6666667"></polygon>
                    <polygon id="Fill-3366" points="8 14.6666667 9.33333333 14.6666667 9.33333333 13.3333333 8 13.3333333"></polygon>
                    <polygon id="Fill-3367" points="8 17.3333333 9.33333333 17.3333333 9.33333333 16 8 16"></polygon>
                    <polygon id="Fill-3368" points="10.6666667 10.6666667 12 10.6666667 12 9.33333333 10.6666667 9.33333333"></polygon>
                    <polygon id="Fill-3369" points="10.6666667 13.3333333 12 13.3333333 12 12 10.6666667 12"></polygon>
                    <polygon id="Fill-3370" points="10.6666667 16 12 16 12 14.6666667 10.6666667 14.6666667"></polygon>
                    <path d="M21.4166667,18.4602667 C19.7593333,18.4602667 18.4086667,17.8936 17.3606667,16.8336 C19.1193333,14.2962667 19.1113333,10.9362667 17.282,8.39626667 C18.386,7.28426667 19.85,6.62826667 21.4166667,6.62826667 C24.6793333,6.62826667 27.3326667,9.28293333 27.3326667,12.5442667 C27.3326667,15.8056 24.6793333,18.4602667 21.4166667,18.4602667 L21.4166667,18.4602667 Z M17.266,13.3336 C17.214,13.7962667 17.1153333,14.2416 16.9646667,14.6669333 L16.0006667,14.6669333 L16.0006667,16.0002667 L16.2753333,16.0002667 C15.6673333,16.9069333 14.886,17.5656 14.0246667,18.0002667 L13.334,18.0002667 L13.334,18.2976 C12.9086667,18.4496 12.462,18.5469333 12.0006667,18.5989333 L12.0006667,17.3336 L10.666,17.3336 L10.666,18.5989333 C10.2113333,18.5482667 9.77133333,18.4522667 9.35133333,18.3029333 L9.35133333,18.0002667 L8.642,18.0002667 C8.642,18.0002667 8.63933333,17.9989333 8.638,17.9976 C7.666,17.5029333 6.81533333,16.7109333 6.34866667,16.0002667 L6.666,16.0002667 L6.666,14.6669333 L5.702,14.6669333 C5.55133333,14.2416 5.45266667,13.7962667 5.40066667,13.3336 L6.666,13.3336 L6.666,12.0002667 L5.40066667,12.0002667 C5.45266667,11.5402667 5.55,11.0989333 5.69933333,10.6776 C5.70066667,10.6736 5.70066667,10.6696 5.702,10.6669333 L6.666,10.6669333 L6.666,9.3336 L6.34866667,9.3336 L6.35,9.33226667 C7.29533333,7.92693333 8.874,6.93626667 10.666,6.73493333 L10.666,8.00026667 L12.0006667,8.00026667 L12.0006667,6.73493333 C13.81,6.9376 15.3486667,7.91493333 16.2846667,9.3336 L16.0006667,9.3336 L16.0006667,10.6669333 L16.9646667,10.6669333 C17.1153333,11.0922667 17.214,11.5376 17.266,12.0002667 L16.0006667,12.0002667 L16.0006667,13.3336 L17.266,13.3336 Z M28.666,0.000266666667 L3.33266667,0.000266666667 C1.49533333,0.000266666667 0.000666666667,1.49493333 0.000666666667,3.3336 L0.000666666667,20.6669333 C0.000666666667,22.5042667 1.49533333,24.0002667 3.33266667,24.0002667 L28.666,24.0002667 C30.5046667,24.0002667 31.9993333,22.5042667 31.9993333,20.6669333 L31.9993333,3.3336 C31.9993333,1.49493333 30.5046667,0.000266666667 28.666,0.000266666667 L28.666,0.000266666667 Z" id="Fill-3371"></path>
                </g>
            </g>
        </g>
    </g>
</svg>