<svg xmlns="http://www.w3.org/2000/svg" width="70" height="45" viewBox="0 0 70 45">
    <g fill="#15884F">
        <g>
            <path d="M.115 8.654c0-1.154.462-2.192 1.27-3.116.807-.923 1.846-1.5 3.115-1.615 1.27-.115 2.192.115 3 .923.808.808 1.154 1.73 1.154 3 0 1.154-.462 2.308-1.27 3.116-.807.923-1.846 1.384-3.115 1.615-2.423.346-4.384-1.615-4.154-3.923zM6 6.462c-.346-.347-.923-.577-1.5-.462-.577.115-1.154.346-1.615.808-.462.461-.693 1.038-.693 1.73 0 .693.116 1.154.577 1.5.346.347.923.462 1.5.462s1.154-.346 1.616-.808c.461-.461.692-1.038.692-1.73 0-.693-.115-1.154-.577-1.5zM14.077 2.885c.808-.116 1.5.115 2.077.577.577.461.808 1.153.808 2.076 0 .808-.231 1.5-.808 2.077-.577.577-1.27.923-2.192 1.039l-1.039.115-.23 2.539-2.078.23.347-8.307 3.115-.346zm-.115 1.961l-1.039.116-.115 1.73 1.038-.115c.577-.115.923-.462.923-1.039.116-.461-.23-.692-.807-.692zM24 3.462L20.885 3.808 20.769 4.962 23.538 4.615 23.423 6.577 20.769 7.038 20.769 8.308 23.885 7.846 23.769 9.808 18.577 10.5 18.923 2.192 24.115 1.5zM26.192 9.577L26.538 1.154 28.154.923 30.808 4.846 31.038.462 33.115.231 32.769 8.538 31.154 8.885 28.5 4.962 28.269 9.231z" transform="translate(16.154 23.077)"/>
        </g>
        <path d="M66.346 14.423l-11.423 1.5L34.27 4.846c.116-.461.231-.923.116-1.5-.231-1.73-1.616-2.884-3.347-2.884h-.461c-1.846.23-3.115 1.961-2.885 3.692.116.461.231 1.038.577 1.384L11.192 21.692 0 23.077l2.77 21.461L69.23 36l-2.884-21.577zm-36.923-12c.346-.461.923-.808 1.5-.808h.346c1.039 0 2.077.808 2.193 1.962.115.577-.116 1.154-.462 1.615-.346.462-.923.808-1.5.808h-.346c-1.039 0-2.077-.808-2.192-1.962 0-.576.115-1.153.461-1.615zm-.23 4.039c.576.461 1.269.692 1.96.692h.462c.923-.116 1.731-.577 2.193-1.27l19.154 10.27-39.808 5.192L29.192 6.462zM5.652 40.846l-1.96-14.884 59.769-7.731 1.961 14.884-59.77 7.731z"/>
    </g>
</svg>
