<?xml version="1.0" encoding="UTF-8"?>
<svg width="31px" height="23px" viewBox="0 0 31 23" version="1.1" xmlns="http://www.w3.org/2000/svg" xmlns:xlink="http://www.w3.org/1999/xlink">
    <!-- Generator: Sketch 64 (93537) - https://sketch.com -->
    <title>visa</title>
    <desc>Created with Sketch.</desc>
    <g id="wireframes" stroke="none" stroke-width="1" fill="none" fill-rule="evenodd">
        <g id="XL-/-1440-→-2560-" transform="translate(-100.000000, -3341.000000)" fill="#FFFFFF">
            <g id="footer" transform="translate(0.000000, 3119.000000)">
                <g id="visa" transform="translate(100.000000, 222.000000)">
                    <path d="M22.9798737,9.48227368 L22.9596632,9.48227368 C22.9798737,9.48227368 21.8139789,12.0085895 21.8139789,12.0085895 L23.1971368,12.0085895 C23.1137684,11.1142737 22.9798737,9.48227368 22.9798737,9.48227368" id="Fill-3355"></path>
                    <path d="M23.3868632,14.5349053 L23.2542316,12.6401684 L21.4163368,12.6401684 L20.6584421,14.5349053 L19.2083368,14.5349053 L22.3157053,8.21911579 L24.0689684,8.21911579 L24.8180211,14.5349053 L23.3868632,14.5349053 Z M9.45170526,14.5349053 L7.86896842,14.5349053 L7.22981053,9.48227368 L6.20791579,9.48227368 C5.85802105,9.48227368 5.57633684,9.19932632 5.57633684,8.85069474 C5.57633684,8.50206316 5.85802105,8.21911579 6.20791579,8.21911579 L8.48412632,8.21911579 C8.83654737,11.9972211 8.84412632,12.0085895 8.92117895,13.2717474 L8.93886316,13.2717474 C9.41254737,12.0085895 10.0011789,10.8275368 11.2226526,8.21911579 L12.7472842,8.21911579 L9.45170526,14.5349053 Z M13.6201263,14.5349053 L12.2546526,14.5349053 L13.4685474,8.21911579 L14.8327579,8.21911579 L13.6201263,14.5349053 Z M16.8121263,11.8153263 C16.1300211,11.4464842 15.4858105,10.9538526 15.4858105,10.1201684 C15.4858105,8.83174737 16.6138105,8.0448 18.0045474,8.0448 C18.7813895,8.0448 19.2373895,8.21532632 19.5127579,8.36690526 L19.0858105,9.50501053 C18.8773895,9.39132632 18.4213895,9.21069474 17.8921263,9.21953684 C17.2580211,9.21953684 16.9258105,9.54164211 16.9258105,9.8928 C16.9258105,10.2616421 17.3136,10.4890105 17.8542316,10.7921684 C18.6298105,11.1989053 19.1237053,11.7205895 19.1237053,12.4784842 C19.1237053,13.8995368 17.9477053,14.6296421 16.5266526,14.6296421 C15.6373895,14.6296421 15.0020211,14.4022737 14.6988632,14.1749053 L15.1536,13.0570105 C15.5325474,13.2843789 16.0731789,13.4637474 16.6605474,13.4637474 C17.1910737,13.4637474 17.6748632,13.2174316 17.6748632,12.7159579 C17.6748632,12.3559579 17.3994947,12.1184842 16.8121263,11.8153263 L16.8121263,11.8153263 Z M27.1573895,0.00858947368 L3.15738947,0.00858947368 C1.41675789,0.00858947368 -0.000505263158,1.42458947 -0.000505263158,3.16648421 L-0.000505263158,19.5875368 C-0.000505263158,21.3281684 1.41675789,22.7454316 3.15738947,22.7365895 L27.1573895,22.7365895 C28.8980211,22.7454316 30.3152842,21.3281684 30.3152842,19.5875368 L30.3152842,3.16648421 C30.3152842,1.42458947 28.8980211,0.00858947368 27.1573895,0.00858947368 L27.1573895,0.00858947368 Z" id="Fill-3356"></path>
                </g>
            </g>
        </g>
    </g>
</svg>